<svg id="Capa_1" enable-background="new 0 0 511.185 511.185" height="512" viewBox="0 0 511.185 511.185" width="512" xmlns="http://www.w3.org/2000/svg"><g><g><path d="m328.642 333.211-44.38-32.26h-58.34l-43.38 32.26-36.41 27.81 4.126 66.26 108.046 32.548 94.289-45.299 11.829-53.989z" fill="#ffe0d1"/><path d="m183.824 37.635-10.939 4.511c-34.845 14.37-52.897 53.016-41.555 88.961l11.245 35.636 20.818 67.296 133.962-167.01-93.845-40.295z" fill="#f2ab6a"/><path d="m328.642 333.211-44.38-32.26h-58.34l-43.38 32.26-15.945 12.179-20.465 15.631 2.557 41.068c4.362-4.276 8.999-8.314 13.915-12.069l17.53-13.389c6.759-5.162 15.96-5.53 23.227-1.112 4.999 3.039 10.185 5.837 15.549 8.372l23.482 11.096c3.945 1.864 8.336 2.85 12.7 2.85 4.363 0 8.755-.985 12.7-2.85l23.482-11.096c20.314-9.598 38.103-22.937 52.724-38.95z" fill="#ffd1c2"/><path d="m368.444 227.275c1.254 59.042-32.32 113.303-85.714 138.532l-23.483 11.096c-2.631 1.243-5.68 1.243-8.311 0l-23.483-11.096c-53.394-25.229-86.968-79.49-85.714-138.532l.378-44.655h226.359z" fill="#f2ab6a"/><g id="XMLID_27_"><g><path d="m184.381 182.62h-35.988-6.273l-.378 44.655c-1.254 59.042 32.32 113.303 85.714 138.532l23.483 11.096c2.631 1.243 5.68 1.243 8.311 0l16.976-8.021-6.507-3.075c-38.881-18.371-67.244-52.141-79.31-91.938-.444-1.465.724-2.893 2.253-2.836.526.02 1.052.03 1.579.03h.004c7.083 0 13.943-1.626 20.39-4.832l18.476-9.189c3.571-1.776 7.77-2.03 11.427-.44 3.47 1.508 7.243 2.307 11.057 2.307 3.693 0 7.346-.749 10.714-2.158 3.78-1.581 8.035-1.567 11.703.257l18.543 9.222c6.448 3.207 13.308 4.832 20.391 4.832 25.281 0 45.849-20.578 45.849-45.873v-42.57h-178.414z" fill="#f19b4e"/><path d="m155.321 213.533c-12.921 0-23.395-10.474-23.395-23.395 0-12.921 10.474-23.395 23.395-23.395h52.9v46.79z" fill="#ffd1c2"/><path d="m203.51 26.735-19.687 10.9-10.939 4.512c-3.02 1.246-5.9 2.662-8.659 4.254-.551 2.362-.97 4.798-1.219 7.259-1.861 18.372 5.25 37.161 18.619 49.453l42.498 55.214 73.231-91.297z" fill="#f19b4e"/><path d="m346.172 42.711-11.28-12.76 1.6-9.61c.46-2.75-1.75-5.21-4.53-5.05l-21.74 1.23c-3.89.22-7.78-.35-11.45-1.67l-.83-.3c-13.05-4.71-26.67-7.04-40.25-7.04-20.1 0-40.11 5.11-58.03 15.17-28.55 16.03-27.48 52.45-7 70.18l43.97 57.125 111.16 59.495c7.87-13.75 22.48-39.42 23.9-42.74l2.34-9.28c10.24-40.5-.18-83.45-27.86-114.75z" fill="#f2ab6a"/><path d="m355.864 213.533c12.921 0 23.395-10.474 23.395-23.395 0-12.921-10.474-23.395-23.395-23.395h-69.587v46.79z" fill="#ffd1c2"/><path d="m347.792 209.481v15.71c0 22.89-24.07 37.8-44.56 27.61l-26.2-13.03c-1.8-.89-3.74-1.33-5.67-1.33-2.81 0-5.6.93-7.89 2.73-2.31 1.83-5.1 2.74-7.88 2.74s-5.57-.91-7.88-2.74c-3.87-3.04-9.15-3.59-13.56-1.4l-26.2 13.03c-20.49 10.19-44.56-4.72-44.56-27.61v-59.72c0-19.33 5.83-38.22 16.72-54.19l12.55-18.42c7.12 6.16 16.59 10.07 27.98 10.07h79.62c7.86 0 15.47 1.94 22.21 5.51 6.75 3.56 12.64 8.76 17.06 15.25 5.38 7.89 8.26 17.22 8.26 26.77z" fill="#ffe0d1"/></g></g><path d="m284.266 300.954 10.236-17.64c1.515-2.611.389-5.959-2.396-7.123-23.682-9.899-50.343-9.899-74.026 0-2.785 1.164-3.911 4.512-2.396 7.123l10.236 17.64c2.807 4.837 8.573 7.106 13.923 5.479l3.439-1.046c7.7-2.341 15.923-2.341 23.623 0l3.439 1.046c5.349 1.627 11.115-.642 13.922-5.479z" fill="#ffd1c2"/><g id="XMLID_116_"><g><path d="m252.821 439.249c-.861-.287-51.388 2.651-51.388 2.651l-29.572-1.503-38.757 49.667 11.229 13.616h133.46l15.508-24.526c0 .001-39.619-39.618-40.48-39.905z" fill="#a1cc7a"/><path d="m170.212 380.121-24.08-19.1-19.81 15.13c-37.06 28.31-58.81 72.29-58.81 118.93v.345c0 4.559 3.696 8.255 8.255 8.255h68.565l8.32-3.9c23.94-11.23 41.77-32.38 48.78-57.88l6.754-27.611z" fill="#b0d58f"/><path d="m443.672 495.081v.345c0 4.559-3.696 8.255-8.255 8.255h-157.625l-3.69-1.79c-28.97-14.05-53.78-34.74-72.67-59.99-13.79-18.43-24.42-39.29-31.22-61.78 49.72 39.42 120.04 39.42 169.76 0l24.08-19.1.37-.48 20.44 15.61c37.06 28.31 58.81 72.29 58.81 118.93z" fill="#c0dca3"/></g></g><path d="m162.605 390.019 10.267-7.843-2.659-2.056-24.08-19.1-19.81 15.13c-37.06 28.31-58.81 72.29-58.81 118.93v.345c0 4.559 3.696 8.255 8.255 8.255h28.131c1.57-44.668 23.045-86.42 58.706-113.661z" fill="#a1cc7a"/><path d="m339.532 123.691c-4.42-6.49-10.31-11.69-17.06-15.25-6.74-3.57-14.35-5.51-22.21-5.51h-79.62c-.05 0-.147-.003-.147-.003-11.324-.034-20.744-3.934-27.833-10.067l-12.55 18.42c-10.89 15.97-16.72 34.86-16.72 54.19v59.727c0 22.89 24.065 37.798 44.56 27.603l2.044-1.017c-7.681-5.465-12.93-14.411-12.93-25.099v-59.72c0-6.9.744-13.744 2.195-20.419 2.436-11.204 12.418-18.988 23.884-18.954h.182 88.226c8.71 0 17.142 1.94 24.611 5.51 3.718 1.77 7.207 3.957 10.371 6.495-1.332-5.653-3.696-11.057-7.003-15.906z" fill="#ffd1c2"/></g><g><path d="m242.024 313.61 3.438-1.046c6.301-1.915 12.96-1.916 19.259 0l3.44 1.046c1.902.578 3.831.856 5.732.856 6.819 0 13.28-3.58 16.858-9.748l10.235-17.64c1.806-3.11 2.184-6.851 1.037-10.26s-3.708-6.161-7.027-7.548c-25.36-10.601-54.451-10.601-79.81 0-3.319 1.387-5.88 4.139-7.027 7.548s-.769 7.149 1.036 10.259l10.236 17.641c4.577 7.888 13.869 11.543 22.593 8.892zm44.538-31.557-8.783 15.138c-1.064 1.834-3.226 2.687-5.254 2.067l-3.44-1.046c-4.577-1.392-9.284-2.087-13.992-2.087s-9.417.695-13.994 2.087l-3.438 1.046c-2.03.618-4.19-.233-5.255-2.067l-8.783-15.138c20.154-7.654 42.784-7.654 62.939 0z"/><path d="m426.358 410.341c-2.233-3.488-6.871-4.505-10.36-2.272-3.488 2.233-4.506 6.872-2.272 10.36 14.683 22.936 22.444 49.442 22.444 76.655v8.599c0 4.143 3.358 7.5 7.5 7.5s7.5-3.357 7.5-7.5v-8.599c-.001-30.085-8.58-59.389-24.812-84.743z"/><path d="m389.411 370.191-50.411-38.51c24.129-28.69 37.768-65.675 36.943-104.565l-.282-13.282c6.778-5.672 11.098-14.188 11.098-23.696 0-7.999-3.057-15.297-8.062-20.79.094-.252.197-.5.265-.767l2.347-9.284c7.405-29.287 4.611-60.581-7.868-88.117-1.709-3.772-6.153-5.445-9.927-3.735-3.773 1.709-5.445 6.154-3.735 9.927 11.082 24.454 13.563 52.243 6.988 78.25l-1.304 5.156c-3.024-.991-6.248-1.534-9.599-1.534h-.573v-8.784c0-11.104-3.306-21.822-9.56-30.996-10.259-15.049-27.256-24.033-45.468-24.033h-79.618c-6.775 0-12.934-1.62-18.31-4.815l-4.932-3.584c-8.584-7.537-13.184-19.416-12.013-31.078 1.143-11.384 7.515-20.876 17.943-26.73 28.147-15.801 61.704-18.577 92.059-7.618l.837.303c4.64 1.675 9.491 2.382 14.415 2.104l17.801-1.008-.953 5.718c-.372 2.229.282 4.508 1.78 6.201l11.282 12.759c1.041 1.178 2.116 2.456 3.386 4.025 2.606 3.22 7.329 3.719 10.548 1.114 3.22-2.605 3.719-7.328 1.114-10.548-1.41-1.743-2.621-3.182-3.81-4.526l-8.916-10.083 1.015-6.089c.595-3.569-.45-7.16-2.865-9.854s-5.872-4.125-9.485-3.917l-21.745 1.23c-2.898.163-5.746-.251-8.467-1.234l-.837-.303c-34.463-12.439-72.55-9.289-104.5 8.646-7.011 3.936-12.784 9.211-17.088 15.41l-8.877 3.66c-18.594 7.669-33.521 21.928-42.033 40.15s-9.867 38.82-3.815 58.001l10.633 33.697c-6.365 5.663-10.384 13.908-10.384 23.077 0 9.042 3.905 17.189 10.116 22.844l-.3 14.134c-.363 17.107 2.045 34.05 7.159 50.356 1.005 3.205 3.963 5.258 7.154 5.258.743 0 1.499-.111 2.246-.346 3.952-1.239 6.152-5.448 4.912-9.4-4.625-14.749-6.803-30.074-6.475-45.55l.148-6.979c1.921.375 3.904.578 5.934.578h.573v4.158c0 13.365 6.783 25.547 18.144 32.586 11.363 7.041 25.29 7.689 37.257 1.739l26.197-13.027c1.805-.895 3.994-.67 5.575.575 7.374 5.812 17.675 5.81 25.049.001 1.583-1.246 3.771-1.474 5.574-.576l26.199 13.027c5.434 2.702 11.271 4.043 17.09 4.043 6.995-.001 13.964-1.939 20.167-5.782 11.361-7.039 18.144-19.221 18.144-32.586v-4.158h.573c1.681 0 3.329-.14 4.938-.399l.144 6.801c1.189 56.007-30.77 107.659-81.42 131.591l-23.482 11.096c-.604.285-1.298.285-1.902 0l-23.482-11.096c-26.537-12.538-48.25-32.647-62.791-58.154-2.052-3.598-6.632-4.852-10.23-2.801-3.599 2.052-4.853 6.632-2.801 10.23 4.863 8.529 10.462 16.502 16.704 23.873l-49.766 38.016c-19.098 14.59-34.823 33.688-45.476 55.23-10.652 21.542-16.283 45.632-16.283 69.664v8.599c0 4.143 3.358 7.5 7.5 7.5s7.5-3.357 7.5-7.5v-8.599c0-44.019 20.884-86.252 55.864-112.975l15.163-11.583 17.712 14.045c6.669 21.162 16.672 40.948 29.446 58.682-7.026 21.91-22.802 39.918-43.734 49.737l-8.319 3.902c-3.75 1.759-5.364 6.225-3.605 9.975 1.276 2.721 3.977 4.317 6.795 4.317 1.067 0 2.15-.229 3.18-.712l8.319-3.902c21.725-10.191 38.747-27.851 48.186-49.542 18.337 21.407 41.016 39.098 66.803 51.613l3.689 1.79c1.055.512 2.17.754 3.269.754 2.783 0 5.457-1.557 6.753-4.229 1.808-3.727.253-8.213-3.474-10.021l-3.689-1.789c-41.287-20.037-73.981-54.38-92.19-96.076 21.288 11.782 45.433 18.118 69.909 18.118 32.374 0 64.174-11.078 89.541-31.192l19.998-15.858 15.674 11.973c4.96 3.789 9.765 8.002 14.28 12.522 1.465 1.466 3.385 2.199 5.306 2.199 1.918 0 3.836-.731 5.301-2.194 2.93-2.927 2.933-7.676.005-10.606-4.987-4.993-10.299-9.65-15.788-13.842zm-234.09-164.158c-8.765 0-15.895-7.131-15.895-15.896s7.13-15.895 15.895-15.895h.573v31.79h-.573zm.776-46.79h-.776c-2.406 0-4.745.285-6.994.808l-9.845-31.202c-4.918-15.588-3.817-32.329 3.101-47.14 6.158-13.182 16.454-23.802 29.298-30.374-.169 1.03-.311 2.069-.416 3.118-1.428 14.233 3.305 28.72 12.524 39.287l-9.077 13.315c-10.613 15.569-16.703 33.498-17.815 52.188zm184.194 65.949c0 8.136-4.129 15.551-11.044 19.835-6.916 4.286-15.393 4.681-22.678 1.059l-26.2-13.027c-6.969-3.463-15.421-2.59-21.534 2.226-1.908 1.504-4.574 1.504-6.484-.001-6.112-4.815-14.565-5.688-21.535-2.225l-26.198 13.027c-7.285 3.622-15.763 3.226-22.679-1.059-6.916-4.284-11.044-11.699-11.044-19.835v-59.718c0-17.899 5.33-35.178 15.412-49.969l8.234-12.079c.026.015.054.025.081.04 7.738 4.615 16.489 6.964 26.024 6.964h79.618c13.247 0 25.611 6.535 33.074 17.482 4.549 6.673 6.954 14.47 6.954 22.547v74.733zm15-19.159v-31.79h.573c8.765 0 15.895 7.13 15.895 15.895s-7.13 15.896-15.895 15.896h-.573zm-19.977 168.208c-22.727 18.021-51.216 27.946-80.221 27.946s-57.495-9.925-80.221-27.946l-16.531-13.109 23.494-17.947c12.319 11.981 26.582 21.92 42.417 29.402l23.482 11.096c2.339 1.105 4.849 1.657 7.359 1.657s5.021-.553 7.359-1.657l23.482-11.096c16.117-7.615 30.509-17.78 42.821-29.857l23.58 18.013z"/></g></g></svg>